<?xml version="1.0" encoding="utf-8"?>
<!-- Generator: Adobe Illustrator 19.0.0, SVG Export Plug-In . SVG Version: 6.00 Build 0)  -->
<svg version="1.1" id="Слой_1" xmlns="http://www.w3.org/2000/svg" xmlns:xlink="http://www.w3.org/1999/xlink" x="0px" y="0px"
	 viewBox="-49 -250 1000 1000" style="enable-background:new -49 -250 1000 1000;" xml:space="preserve">
<style type="text/css">
	.st0{fill:#FFFFFF;}
	.st1{fill:#FF5635;}
</style>
<g>
	<path class="st0" d="M879.7,178.7c-3.3,50.8,61.3,151.9-133,290.4c-108.3,77.2-4.5,165-29.5,165c-58.3,0-370.4-33.6-539.2-135.5
		C39.6,415,22.3,285.5,22.3,178.7c0-236.8,192-396.2,428.7-396.2S895.1-57.5,879.7,178.7z"/>
	<path class="st1" d="M-39,187.3c0,58.1,13,114.5,38.6,167.5C24.3,406,59.7,452,104.8,491.4c45,39.4,97.4,70.3,155.7,91.9
		c60.4,22.3,124.5,33.6,190.5,33.6h78.9l229.9,125.4V513c56.1-39.9,100.2-87.1,131.1-140.2c33.2-57.2,50.1-119.6,50.1-185.5
		c0-58.1-13-114.5-38.7-167.5c-24.7-51.1-60.1-97.1-105.2-136.5c-45-39.4-97.4-70.3-155.7-91.9C581.1-231,517-242.3,451-242.3
		S320.9-231,260.5-208.6c-58.3,21.6-110.7,52.5-155.7,91.9C59.7-77.3,24.3-31.4-0.4,19.8C-26,72.8-39,129.2-39,187.3z M688,485.5
		v131.6L533,543l-82.1,2.1C219.1,545,30.6,384.5,30.6,187.2c0-94.8,43.9-184.8,123.6-253.3c80.1-68.7,185.5-106.6,296.8-106.6
		c227.9,0,420.4,164.9,420.4,360c0,115.9-69,229.5-180.1,296.3L688,485.5z"/>
</g>
</svg>
